<svg width="33" height="32" viewBox="0 0 33 32" fill="none" xmlns="http://www.w3.org/2000/svg">
<rect x="0.5" width="32" height="32" rx="8" fill="#FF875B"/>
<path d="M19.7174 5H13.2826C13.0615 5 12.8896 5.17736 12.8896 5.3902C12.7545 11.3968 9.59846 17.096 4.15827 21.1281C3.98635 21.2581 3.94951 21.4946 4.07231 21.672L7.84237 26.8391C7.96518 27.0165 8.22306 27.0519 8.39499 26.9219C11.7966 24.4151 14.5351 21.3882 16.5 18.042C18.4649 21.4 21.2034 24.4151 24.605 26.9219C24.7769 27.0519 25.0348 27.0165 25.1576 26.8391L28.9277 21.672C29.0505 21.4946 29.0137 21.2581 28.8417 21.1281C23.4015 17.096 20.2455 11.3968 20.1104 5.3902C20.1104 5.16554 19.9385 5 19.7174 5Z" fill="white"/>
</svg>
