<svg width="33" height="32" viewBox="0 0 33 32" fill="none" xmlns="http://www.w3.org/2000/svg">
<rect x="0.5" width="32" height="32" rx="8" fill="url(#paint0_linear_306_2194)"/>
<g clip-path="url(#clip0_306_2194)">
<path d="M20.0252 5.98665C20.0616 6.04829 20.0134 6.12449 19.9419 6.12449C18.4926 6.12449 17.3144 7.27195 17.2867 8.69781C16.7905 8.60515 16.2763 8.59819 15.7683 8.68378C15.7332 7.26443 14.558 6.12449 13.1134 6.12449C13.0418 6.12449 12.9936 6.04824 13.03 5.98655C13.7316 4.79838 15.0353 4 16.5276 4C18.0199 4 19.3236 4.79843 20.0252 5.98665Z" fill="white"/>
<path d="M24.6 14.8909C24.9655 15.0016 25.3116 14.6808 25.1895 14.319C23.9161 10.5472 19.6934 9.00919 16.5074 9.00919C13.3161 9.00919 8.99923 10.5961 7.8264 14.3359C7.71371 14.6953 8.05879 15.0052 8.41886 14.8949L16.2238 12.5032C16.3831 12.4544 16.5533 12.4541 16.7128 12.5025L24.6 14.8909Z" fill="white"/>
<path d="M7.84641 15.4924L16.2298 12.9499C16.3881 12.9019 16.5572 12.9017 16.7156 12.9495L25.1512 15.4937C25.8485 15.704 26.3257 16.3464 26.3257 17.0747V24.6631C26.2934 26.5154 24.6294 28 22.7777 28H19.7022C19.3982 28 19.152 27.7541 19.152 27.4501V24.7895C19.152 23.7419 19.772 22.7937 20.7315 22.374C22.0176 21.8114 23.539 21.0505 23.8252 19.5235C23.9176 19.0306 23.5962 18.5552 23.1046 18.4575C21.8616 18.2105 20.4835 18.3059 19.3181 18.8271C17.9952 19.4188 17.6491 20.4031 17.521 21.725L17.3657 23.149C17.3183 23.5842 16.9102 23.9177 16.4726 23.9177C16.0199 23.9177 15.6805 23.5729 15.6314 23.1226L15.479 21.725C15.3692 20.5927 15.1703 19.4928 13.9998 18.9693C12.6646 18.3721 11.3228 18.1738 9.89541 18.4575C9.40379 18.5552 9.08243 19.0306 9.1748 19.5235C9.46346 21.0638 10.973 21.8073 12.2685 22.374C13.228 22.7937 13.848 23.7419 13.848 24.7895V27.4496C13.848 27.7536 13.6019 28 13.2979 28H10.2223C8.37061 28 6.70665 26.5154 6.67432 24.6631V17.0728C6.67432 16.3453 7.1503 15.7036 7.84641 15.4924Z" fill="white"/>
</g>
<defs>
<linearGradient id="paint0_linear_306_2194" x1="16.1863" y1="-21.6564" x2="38.3976" y2="28.6286" gradientUnits="userSpaceOnUse">
<stop stop-color="#F5D45E"/>
<stop offset="1" stop-color="#FF9600"/>
</linearGradient>
<clipPath id="clip0_306_2194">
<rect width="24" height="24" fill="white" transform="translate(4.5 4)"/>
</clipPath>
</defs>
</svg>
