<?xml version="1.0" standalone="no"?>
<!DOCTYPE svg PUBLIC "-//W3C//DTD SVG 20010904//EN"
 "http://www.w3.org/TR/2001/REC-SVG-20010904/DTD/svg10.dtd">
<svg version="1.0" xmlns="http://www.w3.org/2000/svg"
 width="3000.000000pt" height="3000.000000pt" viewBox="0 0 3000.000000 3000.000000"
 preserveAspectRatio="xMidYMid meet">
<metadata>
Created by potrace 1.14, written by Peter Selinger 2001-2017
</metadata>
<g transform="translate(0.000000,3000.000000) scale(0.100000,-0.100000)"
fill="#000000" stroke="none">
<path d="M21895 23729 c-27 -4 -74 -10 -104 -14 -30 -4 -63 -9 -75 -11 -12 -2
-34 -6 -51 -9 -52 -9 -79 -14 -120 -24 -22 -6 -53 -12 -70 -15 -16 -3 -104
-26 -195 -51 -195 -54 -181 -51 -200 -58 -8 -3 -40 -13 -70 -22 -30 -9 -64
-20 -75 -25 -11 -4 -69 -25 -130 -45 -60 -20 -119 -40 -130 -45 -11 -5 -58
-23 -105 -40 -47 -17 -99 -38 -117 -46 -17 -8 -36 -14 -42 -14 -6 0 -19 -5
-29 -10 -30 -18 -285 -120 -299 -120 -7 0 -13 -4 -13 -9 0 -5 -11 -12 -25 -15
-14 -4 -55 -20 -92 -37 -38 -17 -81 -37 -98 -44 -16 -7 -57 -26 -90 -41 -33
-15 -87 -39 -120 -54 -155 -71 -240 -112 -500 -241 -318 -159 -321 -160 -695
-367 -25 -14 -62 -36 -82 -49 -21 -12 -41 -23 -46 -23 -4 0 -18 -9 -30 -20
-12 -12 -22 -19 -22 -16 0 2 -47 -24 -105 -60 -58 -35 -110 -64 -115 -64 -6 0
-10 -4 -10 -9 0 -5 -13 -14 -30 -21 -16 -7 -30 -16 -30 -21 0 -5 -6 -9 -14 -9
-8 0 -21 -6 -28 -14 -8 -7 -27 -21 -43 -30 -46 -25 -67 -39 -106 -68 -20 -16
-40 -28 -44 -28 -3 0 -21 -11 -39 -25 -18 -14 -38 -25 -44 -25 -6 0 -12 -4
-14 -9 -2 -7 -75 -58 -137 -96 -35 -22 -117 -80 -129 -92 -8 -7 -23 -18 -35
-25 -12 -6 -47 -30 -78 -54 -31 -24 -59 -40 -63 -37 -3 4 -6 2 -6 -3 0 -5 -25
-27 -55 -49 -53 -38 -215 -159 -280 -210 -174 -135 -301 -238 -303 -246 -2 -5
-8 -9 -13 -9 -8 0 -31 -18 -73 -55 -6 -5 -51 -44 -101 -85 -49 -41 -95 -79
-101 -85 -6 -5 -35 -30 -65 -55 -30 -25 -67 -57 -82 -72 -16 -16 -30 -28 -33
-28 -2 0 -12 -8 -23 -17 -10 -10 -51 -47 -91 -83 -65 -58 -103 -92 -214 -193
-250 -229 -416 -388 -758 -730 -169 -170 -308 -310 -308 -311 0 -1 -42 -46
-94 -100 -52 -54 -139 -145 -193 -204 -54 -58 -120 -130 -148 -159 -27 -29
-77 -82 -110 -119 -33 -37 -75 -83 -94 -103 -18 -20 -59 -65 -90 -100 -31 -35
-67 -76 -81 -91 -27 -29 -133 -149 -163 -184 -23 -27 -127 -144 -147 -165 -16
-18 -112 -130 -145 -170 -11 -13 -33 -39 -50 -57 -16 -18 -41 -47 -55 -64 -14
-17 -36 -44 -50 -59 -14 -15 -41 -47 -61 -72 -20 -24 -72 -87 -115 -140 -44
-52 -90 -110 -104 -128 -14 -18 -43 -56 -65 -84 -22 -29 -42 -54 -45 -57 -3
-3 -17 -21 -30 -40 -14 -19 -33 -44 -43 -55 -10 -11 -26 -32 -35 -47 -9 -16
-20 -28 -24 -28 -4 0 -8 -7 -8 -15 0 -9 -7 -18 -15 -21 -8 -4 -15 -12 -15 -20
0 -8 -4 -14 -10 -14 -5 0 -10 -6 -10 -14 0 -8 -4 -16 -8 -18 -4 -1 -30 -34
-57 -73 -27 -38 -54 -75 -60 -82 -5 -6 -35 -48 -65 -92 -30 -45 -79 -115 -107
-157 -29 -41 -53 -79 -53 -84 0 -6 -4 -10 -10 -10 -5 0 -10 -7 -10 -15 0 -8
-4 -15 -10 -15 -5 0 -10 -6 -10 -14 0 -8 -4 -16 -9 -18 -5 -1 -17 -17 -27 -34
-11 -18 -44 -71 -74 -118 -30 -48 -60 -94 -65 -104 -6 -9 -28 -44 -49 -77 -21
-33 -47 -76 -58 -95 -52 -97 -74 -117 -148 -134 -8 -2 -35 -9 -59 -16 -25 -6
-54 -13 -65 -15 -12 -1 -28 -5 -36 -9 -8 -3 -26 -8 -40 -10 -14 -3 -26 -5 -27
-7 -4 -2 -4 -2 -78 -19 -75 -17 -74 -17 -77 -20 -2 -1 -11 -3 -21 -5 -9 -2
-84 -20 -165 -40 -81 -20 -154 -38 -162 -40 -8 -2 -35 -8 -60 -15 -25 -7 -49
-13 -55 -15 -5 -1 -21 -5 -35 -8 -66 -18 -558 -139 -579 -143 -14 -3 -28 -7
-32 -9 -4 -3 -24 -7 -45 -11 -20 -3 -48 -10 -61 -15 -13 -5 -27 -8 -31 -7 -4
1 -14 -2 -22 -5 -15 -6 -120 -33 -170 -43 -14 -3 -33 -7 -42 -10 -9 -3 -25 -7
-35 -9 -10 -2 -63 -16 -118 -30 -55 -14 -109 -27 -120 -29 -11 -2 -76 -18
-145 -36 -69 -17 -132 -33 -140 -35 -8 -2 -35 -8 -60 -15 -25 -7 -56 -14 -69
-17 -14 -2 -29 -6 -33 -9 -5 -3 -21 -8 -36 -10 -15 -3 -99 -23 -187 -45 -88
-22 -171 -42 -185 -45 -14 -2 -32 -7 -40 -10 -8 -3 -26 -8 -40 -11 -43 -9 -55
-11 -55 -13 0 -1 -11 -4 -25 -7 -31 -6 -35 -7 -90 -22 -25 -7 -54 -15 -65 -17
-11 -1 -47 -10 -80 -18 -33 -9 -69 -18 -80 -21 -11 -2 -67 -16 -125 -30 -58
-15 -113 -29 -123 -31 -9 -2 -25 -6 -35 -9 -28 -7 -346 -86 -362 -89 -86 -21
-136 -38 -151 -53 -16 -17 -62 -94 -91 -153 -7 -14 -17 -28 -23 -32 -5 -4 -7
-8 -3 -8 4 0 -6 -21 -21 -47 -16 -27 -44 -77 -63 -113 -18 -36 -42 -81 -54
-100 -11 -19 -38 -66 -59 -105 -21 -38 -49 -88 -62 -110 -12 -22 -29 -53 -37
-70 -8 -16 -31 -59 -51 -95 -19 -36 -35 -73 -35 -82 0 -18 38 -50 50 -43 4 3
45 7 91 9 46 3 109 8 139 10 54 6 124 11 265 22 39 3 88 6 110 8 22 2 83 7
135 10 52 4 115 9 140 11 25 3 77 7 115 10 39 3 93 7 120 10 28 2 86 7 130 10
44 3 103 8 130 10 28 3 82 7 120 10 39 3 99 7 135 10 36 3 92 8 125 11 61 5
115 9 260 18 44 4 103 9 130 12 28 3 77 7 110 9 33 2 87 6 120 9 33 3 98 8
145 12 104 7 155 12 155 13 0 1 38 4 85 6 46 2 105 7 131 10 26 3 82 8 126 11
110 7 268 19 388 30 22 2 83 6 135 10 52 3 111 8 130 10 19 2 79 7 133 10 l97
6 -19 -50 c-11 -27 -17 -53 -14 -56 4 -3 1 -6 -5 -6 -7 0 -12 -7 -12 -16 0 -9
-6 -28 -14 -42 -14 -27 -90 -222 -95 -244 -2 -7 -8 -22 -44 -108 -6 -14 -11
-28 -11 -32 -1 -3 -4 -10 -8 -14 -5 -4 -8 -14 -8 -22 0 -8 -6 -28 -14 -45 -8
-18 -25 -66 -39 -107 -14 -41 -37 -106 -51 -145 -14 -38 -26 -71 -26 -72 0 -2
-2 -8 -5 -15 -2 -7 -18 -56 -35 -108 -17 -52 -33 -102 -37 -110 -3 -8 -7 -21
-9 -28 -1 -7 -10 -38 -20 -70 -9 -31 -23 -79 -31 -107 -8 -27 -17 -57 -20 -65
-4 -8 -7 -22 -9 -30 -1 -8 -7 -31 -13 -50 -37 -123 -51 -175 -55 -194 -2 -11
-12 -50 -21 -86 -16 -62 -20 -76 -29 -119 -2 -10 -9 -36 -15 -57 -6 -21 -8
-40 -6 -42 2 -3 0 -12 -4 -21 -5 -9 -12 -33 -15 -53 -3 -21 -16 -73 -27 -115
-22 -79 -30 -241 -17 -324 5 -35 3 -39 -61 -95 -82 -74 -575 -564 -662 -660
-121 -134 -293 -333 -344 -398 -16 -22 -35 -44 -40 -50 -6 -6 -54 -67 -106
-136 -188 -246 -335 -475 -495 -773 -73 -135 -334 -669 -334 -682 0 -2 -18
-43 -41 -92 -47 -101 -249 -571 -249 -579 0 -3 -9 -25 -20 -50 -12 -24 -66
-158 -121 -297 -55 -139 -104 -261 -109 -272 -32 -77 -334 -888 -370 -995 -4
-14 -38 -110 -75 -215 -107 -306 -196 -565 -221 -643 l-23 -73 107 57 c59 31
130 69 157 84 28 15 91 49 140 75 50 26 95 51 100 55 6 4 40 23 77 44 133 71
204 110 248 136 25 14 52 29 60 33 8 4 31 17 50 28 19 12 114 66 210 121 96
56 187 109 202 119 14 11 29 19 32 19 12 0 649 388 891 543 145 93 608 405
740 498 191 136 573 425 605 459 3 3 46 39 95 80 156 129 299 263 446 416 36
38 114 128 173 199 134 162 119 144 221 277 48 62 91 120 98 128 39 49 133
179 192 265 38 55 73 105 78 110 14 16 209 314 261 398 l48 77 67 1 c129 1
258 27 316 65 11 7 32 15 46 17 25 5 208 94 219 107 3 3 21 12 40 20 19 8 37
16 40 19 3 3 28 18 55 32 104 53 180 94 185 99 3 3 20 13 38 22 73 39 188 101
197 108 10 7 89 50 250 137 44 24 92 48 108 54 15 6 27 15 27 20 0 5 9 9 19 9
11 0 21 4 23 9 2 5 10 11 18 13 8 2 23 11 34 20 10 10 23 15 27 12 4 -2 10 0
14 6 4 6 11 7 17 4 7 -4 8 -2 4 4 -6 11 -2 13 19 12 3 -1 13 6 21 15 9 8 22
15 30 15 8 0 12 5 9 10 -3 6 0 10 8 10 23 0 78 31 72 40 -3 5 4 7 15 5 11 -2
20 0 20 4 0 5 15 16 33 25 17 10 46 26 63 37 l32 19 -4 -82 c-4 -91 -9 -195
-29 -533 -7 -125 -15 -267 -20 -365 -2 -41 -6 -118 -9 -170 -6 -94 -12 -206
-21 -370 -2 -47 -7 -123 -10 -170 -4 -78 -7 -127 -21 -380 -7 -135 -13 -238
-19 -340 -3 -52 -8 -133 -10 -180 -8 -158 -16 -305 -21 -380 -2 -41 -7 -135
-10 -209 -6 -131 -5 -135 16 -151 21 -16 26 -16 89 6 36 12 208 68 381 124
173 56 322 104 330 107 8 4 17 7 20 7 3 1 19 7 36 14 31 13 39 32 70 157 4 17
8 32 9 35 1 3 7 25 14 50 13 44 16 56 26 102 3 13 9 34 14 48 9 24 21 68 27
100 1 8 12 49 24 90 12 41 28 102 36 135 8 33 17 67 21 75 3 8 7 22 8 30 2 8
15 58 29 110 14 52 38 140 52 195 14 55 44 165 66 245 21 80 41 152 43 160 1
8 9 35 16 60 7 25 13 50 15 55 1 6 16 62 34 125 17 63 33 126 36 140 3 14 12
50 21 80 9 30 18 60 19 65 1 6 14 55 29 110 15 55 35 132 45 170 32 121 61
228 75 278 8 26 14 49 15 52 0 3 2 10 4 17 6 20 48 181 51 198 2 8 4 15 6 15
1 0 3 9 5 20 1 11 15 63 29 115 15 52 28 100 29 105 2 6 9 30 16 55 7 25 14
52 16 60 2 13 25 102 39 150 25 91 46 168 49 180 2 8 9 35 16 60 7 25 13 50
15 55 5 23 48 185 155 581 17 61 30 117 30 125 0 14 46 61 87 90 11 8 40 31
64 51 88 74 246 204 288 238 24 19 58 49 77 65 18 17 46 40 62 52 16 12 40 33
54 45 14 13 51 46 83 73 82 71 88 76 135 115 23 19 56 49 74 65 18 17 56 50
85 75 29 25 65 56 80 70 15 14 60 54 101 90 40 36 92 83 116 105 24 22 70 65
104 95 34 30 81 73 104 95 23 22 100 94 171 160 167 155 799 787 935 934 58
63 128 137 155 166 28 29 75 81 105 116 30 34 67 76 83 92 15 16 46 52 70 80
23 27 49 57 58 66 8 9 44 50 80 91 35 41 69 80 74 86 6 6 26 30 45 54 34 42
73 88 115 136 11 12 27 32 35 44 8 12 24 32 35 44 39 44 102 122 135 166 14
18 45 59 70 89 53 66 54 67 83 106 12 16 60 80 107 141 47 62 92 122 100 134
25 37 104 145 110 150 5 5 7 7 115 165 38 55 73 105 77 110 5 6 18 21 29 35
37 44 231 342 287 440 30 52 63 110 73 128 32 55 53 87 64 94 5 4 6 8 2 8 -4
0 6 20 23 44 16 25 30 47 30 49 0 3 20 40 45 81 25 42 45 79 45 83 0 4 6 14
14 22 7 9 39 64 69 122 31 59 67 126 80 150 59 106 187 363 187 375 0 8 5 14
10 14 6 0 10 4 10 10 0 10 85 195 120 260 10 19 19 37 19 40 0 5 38 91 81 186
11 23 22 54 26 68 3 14 10 26 15 26 5 0 9 6 9 13 0 16 78 197 92 215 6 6 8 12
5 12 -6 0 8 37 38 105 8 17 29 68 48 115 19 47 38 94 42 105 5 11 9 22 10 25
4 11 19 47 36 89 11 24 19 48 19 52 0 5 8 28 19 52 10 23 24 56 30 72 6 17 16
44 22 60 7 17 13 32 14 35 1 3 4 12 8 20 25 64 129 349 132 363 2 10 13 43 24
73 12 30 18 54 15 54 -4 0 -2 6 4 13 11 13 131 370 148 440 1 4 2 8 4 10 1 1
3 9 5 17 7 25 97 334 103 350 3 8 6 20 8 27 1 6 7 27 13 45 6 18 13 44 15 58
3 14 24 97 46 185 52 203 80 326 81 345 1 8 5 31 10 50 4 19 11 49 13 65 3 17
8 41 11 55 3 14 8 43 10 64 3 21 7 42 9 45 3 3 7 33 11 65 3 33 8 62 9 65 2 3
7 37 11 74 3 37 8 78 10 89 6 31 16 151 21 253 3 50 6 101 7 115 1 14 -2 31
-7 38 -5 7 -5 12 0 12 5 0 8 17 7 38 -17 264 -21 296 -44 387 -26 100 -37 133
-66 188 -8 15 -11 27 -8 27 12 0 -80 127 -123 168 -78 76 -181 128 -287 147
-11 2 -41 8 -67 13 -53 10 -319 11 -393 1z m-2636 -8646 c-13 -15 -35 -39 -49
-53 -14 -14 -38 -41 -54 -60 -28 -35 -176 -196 -269 -294 -26 -28 -61 -66 -78
-85 -16 -19 -29 -30 -29 -24 0 5 9 20 20 33 11 13 20 27 20 32 0 5 5 6 10 3 6
-3 10 -2 10 3 0 11 40 58 115 138 28 29 110 116 184 193 73 78 136 141 139
141 3 0 -5 -12 -19 -27z m-525 -570 c-23 -24 -33 -30 -25 -15 6 12 15 22 20
22 4 0 14 12 21 26 8 14 16 21 18 15 2 -6 -13 -27 -34 -48z m-73 -76 c-10 -9
-11 -8 -5 6 3 10 9 15 12 12 3 -3 0 -11 -7 -18z"/>
</g>
</svg>
