<svg width="200" height="200" viewBox="0 0 200 200" fill="none" xmlns="http://www.w3.org/2000/svg">
<g clip-path="url(#clip0_17_79)">
<path d="M100 200C119.778 200 139.112 194.135 155.557 183.147C172.002 172.159 184.819 156.541 192.388 138.268C199.957 119.996 201.937 99.8894 198.079 80.4913C194.22 61.0929 184.696 43.2746 170.711 29.2894C156.726 15.3041 138.907 5.78004 119.509 1.92152C100.111 -1.93701 80.0044 0.0433296 61.7316 7.61206C43.4591 15.1809 27.8412 27.9981 16.8531 44.443C5.8649 60.8879 0 80.2219 0 100C0 126.522 10.5357 151.957 29.2893 170.711C48.0429 189.464 73.4781 200 100 200Z" fill="#0052FF"/>
<path fill-rule="evenodd" clip-rule="evenodd" d="M99.765 170.422C138.658 170.422 170.188 138.894 170.188 100C170.188 61.1069 138.658 29.5776 99.765 29.5776C62.8675 29.5776 32.5976 57.9539 29.5881 94.0738H134.09V105.801H29.5776C32.5272 141.981 62.8244 170.422 99.765 170.422Z" fill="white"/>
</g>
<defs>
<clipPath id="clip0_17_79">
<rect width="200" height="200" fill="white"/>
</clipPath>
</defs>
</svg>
