<svg width="200" height="200" viewBox="0 0 200 200" fill="none" xmlns="http://www.w3.org/2000/svg">
<path d="M100 197.207C155.228 197.207 200 153.431 200 99.4294C200 45.4282 155.228 1.65161 100 1.65161C44.7715 1.65161 0 45.4282 0 99.4294C0 153.431 44.7715 197.207 100 197.207Z" fill="#121212"/>
<mask id="mask0_16_2" style="mask-type:luminance" maskUnits="userSpaceOnUse" x="52" y="44" width="100" height="103">
<path d="M151.61 44.4194H52.175V146.305H151.61V44.4194Z" fill="white"/>
</mask>
<g mask="url(#mask0_16_2)">
<path d="M134.756 146.304H52.175V60.9519H71.0696V129.763H134.756V146.296V146.304Z" fill="#FEFEFE"/>
<path d="M134.759 77.4849C144.067 77.4849 151.613 70.0826 151.613 60.952C151.613 51.8213 144.067 44.4194 134.759 44.4194C125.45 44.4194 117.905 51.8213 117.905 60.952C117.905 70.0826 125.45 77.4849 134.759 77.4849Z" fill="#FEFEFE"/>
</g>
</svg>
