<svg width="200" height="200" viewBox="0 0 200 200" fill="none" xmlns="http://www.w3.org/2000/svg">
<g clip-path="url(#clip0_36_104)">
<path d="M100 200C155.228 200 200 155.228 200 100C200 44.7715 155.228 0 100 0C44.7715 0 0 44.7715 0 100C0 155.228 44.7715 200 100 200Z" fill="#313042"/>
<path d="M80 147.143C80.7143 145 82.1429 142.857 82.8571 140C82.8571 139.286 82.8571 137.857 82.1429 137.143C77.8571 131.429 76.4286 125 77.8571 118.571C77.8571 117.857 77.8571 117.143 78.5714 117.143C78.5714 116.429 79.2857 116.429 79.2857 115.714C84.2857 120.714 85.7143 127.143 86.4286 133.571C87.8571 130.714 90 127.857 91.4286 124.286C91.4286 123.571 90.7143 122.857 90.7143 122.143C86.4286 115.714 85.7143 108.571 88.5714 100.714C93.5714 105.714 95 112.143 95 118.571C97.1429 115.714 98.5714 112.857 100.714 110.714C100.714 110 100.714 109.286 100 108.571C97.8571 102.143 97.8571 95.7142 101.429 89.2857C102.143 88.5714 102.143 87.8571 102.857 87.1428C106.429 92.8571 105.714 98.5714 105 104.286H105.714C107.143 102.143 108.571 100.714 109.286 98.5714C112.143 90.7142 116.429 85 124.286 81.4285C125.714 80.7142 126.429 80.7142 127.857 80C127.857 81.4285 127.857 82.1428 127.143 83.5714C125 90.7142 120 96.4285 112.857 99.9999C110 101.429 107.857 103.571 106.429 106.429C112.143 103.571 117.857 102.143 125 104.286C123.571 105.714 122.857 106.429 121.429 107.143C116.429 110.714 110.714 112.143 105 111.429C102.857 111.429 102.143 111.429 101.429 112.857C100 115 98.5714 117.857 97.1429 120.714C103.571 117.857 110 116.429 117.143 120C115 121.429 113.571 122.857 112.143 123.571C107.143 125.714 102.143 126.429 96.4286 125C95 124.286 94.2857 125 93.5714 126.429C92.1429 129.286 90.7143 132.143 88.5714 135.714C95 132.857 101.429 130.714 108.571 133.571L109.286 134.286C108.571 135 107.857 135 106.429 135.714C100.714 139.286 95 140.714 88.5714 140C87.1429 139.286 85.7143 140 85.7143 141.429C83.5714 147.143 81.4286 152.857 79.2857 157.857C78.5714 160 77.1429 162.143 75.7143 164.286C75 165.714 73.5714 166.429 72.1429 165.714C52.8571 155.714 39.2857 140.714 34.2857 120C24.2857 82.1428 45 44.2857 82.1429 33.5714C125 20.7142 167.143 49.2857 173.571 90.7142C178.571 124.286 159.286 156.429 127.857 167.857C125.714 168.571 124.286 169.286 122.857 167.857C121.429 165.714 121.429 164.286 122.143 162.143C125 155 127.143 147.857 129.286 140.714C130.714 136.429 132.143 135 136.429 135C140.714 134.286 145 134.286 149.286 133.571C152.857 132.857 154.286 131.429 154.286 127.857C154.286 127.143 154.286 125.714 154.286 125C153.571 123.571 154.286 122.143 155.714 120.714C157.143 119.286 157.143 118.571 155.714 117.143C155 116.429 155 115 155.714 115C157.143 113.571 157.143 112.143 155.714 110.714C154.286 109.286 155 107.857 156.429 107.143C157.857 106.429 158.571 105.714 159.286 104.286C161.429 102.857 160.714 101.429 159.286 99.9999C156.429 97.1428 152.857 95 150 92.1428C147.857 90.7142 147.143 87.8571 147.857 85.7142C148.571 81.4285 147.857 77.8571 145.714 74.2857C143.571 71.4285 142.143 67.8571 140.714 65C138.571 60 135 56.4285 130 55C125 53.5714 120 52.8571 114.286 52.1428C110.714 51.4285 107.143 51.4285 103.571 50.7142C94.2857 49.2857 85.7143 51.4285 78.5714 57.8571C76.4286 59.2857 74.2857 61.4285 71.4286 62.1428C69.2857 62.8571 67.8571 65 66.4286 66.4285C65.7143 68.5714 64.2857 70 62.1429 70.7142C58.5714 73.5714 55 75.7142 52.1429 79.2857C51.4286 80.7142 49.2857 81.4285 48.5714 82.1428C44.2857 84.9999 43.5714 87.8571 45 92.1428C45.7143 95 46.4286 97.8571 45.7143 100.714C45 102.857 45 105.714 45.7143 107.857C45.7143 110.714 47.8571 113.571 50.7143 114.286C52.8571 115 54.2857 116.429 54.2857 118.571C55 121.429 56.4286 124.286 58.5714 126.429C60.7143 128.571 62.1429 131.429 63.5714 134.286C65 137.857 67.1429 140 70.7143 141.429C74.2857 142.857 77.1429 144.286 80.7143 145.714C78.5714 146.429 79.2857 146.429 80 147.143Z" fill="#00DACC"/>
</g>
<defs>
<clipPath id="clip0_36_104">
<rect width="200" height="200" fill="white"/>
</clipPath>
</defs>
</svg>
