<svg width="200" height="200" viewBox="0 0 200 200" fill="none" xmlns="http://www.w3.org/2000/svg">
<g clip-path="url(#clip0_50_2)">
<path d="M200 100C200 44.7715 155.228 0 100 0C44.7715 0 0 44.7715 0 100C0 155.228 44.7715 200 100 200C155.228 200 200 155.228 200 100Z" fill="black"/>
<path d="M149.098 143.37H130.134V100.5L137.727 76.047L132.34 74.1318L107.75 143.37H93.318L68.7111 74.1318L63.3417 76.047L70.9341 100.5V143.387H51.9702V57.3396H80.2023L97.7127 106.588V121.054H103.441V106.588L120.952 57.3396H149.184V143.37H149.098Z" fill="#DFFE00"/>
</g>
<defs>
<clipPath id="clip0_50_2">
<rect width="200" height="200" fill="white"/>
</clipPath>
</defs>
</svg>