<svg width="200" height="200" viewBox="0 0 200 200" fill="none" xmlns="http://www.w3.org/2000/svg">
<g clip-path="url(#clip0_16_10)">
<path d="M200 100C200 44.7715 155.228 0 100 0C44.7715 0 0 44.7715 0 100C0 155.228 44.7715 200 100 200C155.228 200 200 155.228 200 100Z" fill="white"/>
<path d="M77.955 51.0044H64.7671C63.8563 51.0044 63.0434 51.5745 62.7309 52.4306L28.0659 147.548C27.8082 148.256 28.3317 149.004 29.084 149.004H42.2722C43.183 149.004 43.9959 148.434 44.3084 147.579L78.9736 52.4609C79.2314 51.7532 78.7079 51.0044 77.955 51.0044ZM93.9964 90.8593C93.65 89.9085 92.3072 89.9085 91.96 90.8593L85.1229 109.622C84.9479 110.102 84.9479 110.629 85.1229 111.109L98.4143 147.579C98.7257 148.434 99.5393 149.004 100.45 149.004H113.639C114.391 149.004 114.914 148.255 114.656 147.547L93.9964 90.8593ZM127.616 109.224C127.963 110.175 129.306 110.175 129.652 109.224L150.339 52.4609C150.596 51.7532 150.073 51.0044 149.321 51.0044H136.133C135.221 51.0044 134.409 51.5738 134.096 52.4306L120.779 88.9743C120.604 89.4543 120.604 89.98 120.779 90.46L127.616 109.224ZM101.613 52.4205C101.304 51.5701 100.496 51.0044 99.5929 51.0044H86.36C85.45 51.0044 84.6372 51.5737 84.3243 52.4299L49.6602 147.548C49.4024 148.256 49.9258 149.004 50.6782 149.004H63.8671C64.7779 149.004 65.5908 148.435 65.9033 147.579L92.4436 74.7514C92.6179 74.2735 93.2929 74.2735 93.4664 74.7514L120.007 147.579C120.319 148.435 121.133 149.004 122.044 149.004H135.233C135.985 149.004 136.509 148.256 136.251 147.549L101.613 52.4205ZM170.915 51.0044H157.725C156.815 51.0044 156.001 51.5737 155.69 52.4299L131.575 118.6C131.4 119.08 131.4 119.606 131.575 120.086L138.414 138.851C138.76 139.801 140.103 139.801 140.449 138.851L164.321 73.3485L171.933 52.4602C172.191 51.7532 171.667 51.0044 170.915 51.0044Z" fill="#EF8220"/>
</g>
<defs>
<clipPath id="clip0_16_10">
<rect width="200" height="200" fill="white"/>
</clipPath>
</defs>
</svg>
