<svg width="200" height="200" viewBox="0 0 200 200" fill="none" xmlns="http://www.w3.org/2000/svg">
<g clip-path="url(#clip0_17_73)">
<path d="M200 100C200 44.7715 155.228 0 100 0C44.7715 0 0 44.7715 0 100C0 155.228 44.7715 200 100 200C155.228 200 200 155.228 200 100Z" fill="#FFF8F3"/>
<path d="M153.176 122.116V49.0751C153.043 42.96 148.296 38.068 142.28 38.068H67.2787C51.1019 38.3398 38.0668 51.7929 38.0668 68.3036C38.0668 73.8751 39.5375 78.6313 41.8102 82.8439C43.6819 86.3091 46.69 89.5705 49.6313 92.0844C50.4334 92.7639 50.0323 92.4921 52.5725 94.1228C56.1154 96.297 60.1261 97.3842 60.1261 97.3842V141.073C60.193 143.111 60.4604 145.15 60.9283 146.984C62.5994 153.099 66.8108 157.855 72.4927 160.166C74.8992 161.117 77.573 161.796 80.4474 161.796L140.342 162C152.307 162 162 152.148 162 139.986C162 132.58 158.524 126.125 153.176 122.116Z" fill="#FFEEDA"/>
<path d="M154.58 140.326C154.313 148.139 148.029 154.39 140.342 154.39L99.0976 154.254C102.373 150.381 104.378 145.353 104.378 139.918C104.378 131.289 99.2981 125.378 99.2981 125.378H140.342C148.23 125.378 154.58 131.9 154.58 139.918V140.326Z" fill="#EBC28E"/>
<path d="M53.4415 85.7655C48.6954 81.2132 45.3531 75.3019 45.3531 68.2356V67.4882C45.7542 55.5299 55.4469 45.8816 67.2119 45.474H142.213C144.152 45.5419 145.756 46.9688 145.756 49.0071V113.487C147.494 113.827 148.297 114.031 149.968 114.642C151.238 115.118 153.109 116.205 153.109 116.205V49.0071C152.976 42.8921 148.23 38 142.213 38H67.2119C51.035 38.2718 38 51.7249 38 68.2356C38 77.8159 42.2782 86.0373 49.3639 91.8126C49.8318 92.2203 50.2997 92.6959 51.5698 92.6959C53.7757 92.6959 55.3132 90.9293 55.2464 88.9589C55.1795 87.3282 54.5111 86.7167 53.4415 85.7655Z" fill="#190602"/>
<path d="M140.342 117.836H81.517C77.5731 117.836 74.3644 121.165 74.3644 125.174V133.735C74.4981 137.676 77.8404 141.141 81.7175 141.141H86.0625V133.735H81.7175V125.31C81.7175 125.31 82.7871 125.31 84.124 125.31C91.5439 125.31 97.0253 132.308 97.0253 139.85C97.0253 146.508 91.076 155.002 81.1159 154.322C72.2253 153.711 67.4793 145.693 67.4793 139.85V66.9446C67.4793 63.6833 64.8722 60.9655 61.5968 60.9655H55.7143V68.4394H60.0593V139.85C59.8588 154.39 70.2199 161.728 81.0491 161.728L140.342 161.932C152.307 161.932 162 152.08 162 139.918C162 127.756 152.307 117.836 140.342 117.836ZM154.58 140.325C154.313 148.139 148.029 154.39 140.342 154.39L99.0976 154.254C102.373 150.381 104.378 145.353 104.378 139.918C104.378 131.289 99.2981 125.378 99.2981 125.378H140.342C148.23 125.378 154.58 131.9 154.58 139.918V140.325Z" fill="#190602"/>
<path d="M124.967 69.7304H80.1801V62.3243H124.967C126.772 62.3243 128.176 63.8191 128.176 65.5857V66.469C128.176 68.3035 126.705 69.7304 124.967 69.7304Z" fill="#190602"/>
<path d="M124.967 104.858H80.1801V97.452H124.967C126.772 97.452 128.176 98.9468 128.176 100.713V101.597C128.176 103.363 126.705 104.858 124.967 104.858Z" fill="#190602"/>
<path d="M132.721 87.3283H80.1132V79.9222H132.721C134.526 79.9222 135.93 81.417 135.93 83.1836V84.0669C135.997 85.8335 134.526 87.3283 132.721 87.3283Z" fill="#190602"/>
</g>
<defs>
<clipPath id="clip0_17_73">
<rect width="200" height="200" fill="white"/>
</clipPath>
</defs>
</svg>
