<svg width="200" height="200" viewBox="0 0 200 200" fill="none" xmlns="http://www.w3.org/2000/svg">
<g clip-path="url(#clip0_16_25)">
<path fill-rule="evenodd" clip-rule="evenodd" d="M199.999 99.998C199.999 155.226 155.229 199.996 100.001 199.996C44.773 199.996 0 155.226 0 99.998C0 44.77 44.773 0 100.001 0C155.229 0 199.999 44.77 199.999 99.998Z" fill="#29296E"/>
<path fill-rule="evenodd" clip-rule="evenodd" d="M146.535 73.2592L143.992 65.4033C143.475 63.8055 142.214 62.5622 140.611 62.072L132.716 59.6442C131.623 59.3105 131.615 57.769 132.698 57.4174L140.557 54.8746C142.152 54.3577 143.396 53.0966 143.889 51.4929L146.313 43.5985C146.647 42.5087 148.189 42.497 148.54 43.5837L151.083 51.4398C151.6 53.0346 152.861 54.2779 154.465 54.7711L162.359 57.1959C163.452 57.5327 163.464 59.0713 162.377 59.4227L154.518 61.9655C152.923 62.4824 151.68 63.7466 151.187 65.35L148.762 73.2416C148.428 74.3344 146.887 74.3461 146.535 73.2592Z" fill="#FAFAFA"/>
<path fill-rule="evenodd" clip-rule="evenodd" d="M9.09216 98.4127C11.4696 93.7553 16.1714 90.2466 21.0563 88.0285C25.9913 85.8342 31.4167 84.4874 36.7446 84.0505C47.5006 83.0787 57.9793 84.8774 67.5246 87.9872C72.4419 89.452 76.8424 91.487 81.3876 93.5424C83.5967 94.6057 85.673 95.8107 87.8113 96.9744L93.718 100.397C100.203 104.372 106.491 107.893 112.398 110.628C118.32 113.339 123.671 115.173 128.715 116.109C133.76 117.057 138.887 117.045 145.192 115.598C151.447 114.184 158.485 111.133 165.842 107.22C173.243 103.303 180.833 98.5011 189.493 93.8083C188.624 103.616 185.848 112.813 181.513 121.694C177.071 130.469 170.892 139.027 161.885 145.959C153.048 152.947 140.913 157.817 128.559 158.549C116.199 159.385 104.442 156.662 94.4387 152.565C84.3972 148.41 75.7202 142.949 68.0296 136.922C65.9061 135.256 64.7661 134.311 63.1978 132.985L58.818 129.148C55.8676 126.839 53.0087 124.077 50.0878 121.789C44.2609 116.919 38.4959 112.039 32.1756 107.81C28.9889 105.66 25.7019 103.667 21.9748 101.9C20.123 101.047 18.1561 100.253 16.0444 99.6263C13.8825 98.9207 11.6852 98.5011 9.09216 98.4127Z" fill="#F6643C"/>
<path fill-rule="evenodd" clip-rule="evenodd" d="M9.09216 98.4127C10.306 88.321 15.0107 78.8556 22.5506 70.7986C30.0522 62.8188 41.7711 56.6669 54.7748 55.8517C61.1926 55.4234 67.7076 56.1382 73.6972 57.798C79.66 59.4519 85.2476 61.8619 90.2832 64.6999C92.7996 66.1264 95.1533 67.6858 97.4983 69.2599L103.748 73.9912L113.503 81.6877C119.835 86.7293 125.877 91.3925 131.462 95.2438C137.1 99.1008 141.902 101.918 146.489 103.569C151.034 105.371 156.775 105.832 164.365 103.924C168.134 103.055 172.065 101.469 176.259 99.7506C180.429 97.9904 184.758 95.8906 189.493 93.8084C188.923 98.8823 187.892 103.936 185.934 108.658C184.053 113.445 181.575 118.129 178.11 122.497C176.338 124.624 174.439 126.762 172.224 128.735C170.009 130.661 167.555 132.489 164.844 134.092C159.436 137.226 153.022 139.515 146.442 140.33C139.861 141.157 133.255 140.743 127.239 139.468C121.19 138.227 115.679 136.228 110.62 133.918C100.537 129.228 92.1024 123.333 84.6452 117.093C80.9004 113.977 77.3887 110.722 74.0632 107.418L70.1354 103.475C68.9511 102.332 67.755 101.183 66.5706 100.132C61.798 95.9112 57.3678 92.6862 52.4889 90.6749C47.6454 88.569 41.4463 87.7038 33.8413 89.1273C26.2661 90.536 17.9552 93.8114 9.09216 98.4127Z" fill="#FAFAFA"/>
<path fill-rule="evenodd" clip-rule="evenodd" d="M49.0646 150.454C49.0646 153.44 46.6428 155.861 43.657 155.861C40.6711 155.861 38.2522 153.44 38.2522 150.454C38.2522 147.468 40.6711 145.046 43.657 145.046C46.6428 145.046 49.0646 147.468 49.0646 150.454Z" fill="#FAFAFA"/>
<path fill-rule="evenodd" clip-rule="evenodd" d="M49.0646 150.454C49.0646 153.44 46.6428 155.861 43.657 155.861C40.6711 155.861 38.2522 153.44 38.2522 150.454C38.2522 147.468 40.6711 145.046 43.657 145.046C46.6428 145.046 49.0646 147.468 49.0646 150.454Z" fill="#FAFAFA"/>
</g>
<defs>
<clipPath id="clip0_16_25">
<rect width="200" height="200" fill="white"/>
</clipPath>
</defs>
</svg>
