<svg width="200" height="200" viewBox="0 0 200 200" fill="none" xmlns="http://www.w3.org/2000/svg">
<g clip-path="url(#clip0_17_92)">
<path d="M100 200C155.228 200 200 155.228 200 100C200 44.7715 155.228 0 100 0C44.7715 0 0 44.7715 0 100C0 155.228 44.7715 200 100 200Z" fill="#FC0FC0"/>
<path d="M159.193 138.378L127.422 93.8657L104.465 43.5235C104.113 42.7693 103.552 42.1313 102.85 41.6843C102.147 41.2374 101.332 41 100.499 41C99.6668 41 98.8514 41.2374 98.149 41.6843C97.4466 42.1313 96.8861 42.7693 96.5334 43.5235L73.7302 93.5884L41.7911 138.363C41.3328 139.018 41.0626 139.786 41.0096 140.583C40.9567 141.381 41.123 142.177 41.4906 142.887C41.8582 143.597 42.4131 144.192 43.0951 144.609C43.777 145.026 44.5601 145.248 45.3593 145.251H45.7753L100.423 139.99L155.223 145.273H155.639C156.437 145.267 157.219 145.043 157.898 144.625C158.578 144.207 159.131 143.612 159.497 142.902C159.863 142.193 160.028 141.398 159.974 140.601C159.921 139.805 159.651 139.039 159.193 138.385V138.378ZM100.51 55.1038L116.688 90.5966H84.3255L100.51 55.1038ZM117.804 99.0247L100.481 129.03L83.1653 99.0247H117.804ZM53.802 136.006L76.4666 104.242L92.6441 132.263L53.802 136.006ZM108.318 132.277L124.496 104.257L147.16 136.021L108.318 132.277Z" fill="white"/>
</g>
<defs>
<clipPath id="clip0_17_92">
<rect width="200" height="200" fill="white"/>
</clipPath>
</defs>
</svg>
