<svg width="200" height="200" viewBox="0 0 200 200" fill="none" xmlns="http://www.w3.org/2000/svg">
<g clip-path="url(#clip0_17_76)">
<path d="M100 200C155.228 200 200 155.228 200 100C200 44.7715 155.228 0 100 0C44.7715 0 0 44.7715 0 100C0 155.228 44.7715 200 100 200Z" fill="#005741"/>
<path d="M125.965 122.104V135.61H70.2503C71.0189 126.721 73.8871 120.467 83.8059 111.673L125.965 75.7064V107.268H141.142V49.2021H54.8457V78.1457H70.022V64.3786H115.869L73.9149 100.183L73.8146 100.278C56.2323 115.845 54.8345 128.409 54.8345 143.212V150.798H141.147V122.116H125.971L125.965 122.104Z" fill="white"/>
</g>
<defs>
<clipPath id="clip0_17_76">
<rect width="200" height="200" fill="white"/>
</clipPath>
</defs>
</svg>
