<svg width="200" height="200" viewBox="0 0 200 200" fill="none" xmlns="http://www.w3.org/2000/svg">
<g clip-path="url(#clip0_16_32)">
<mask id="mask0_16_32" style="mask-type:luminance" maskUnits="userSpaceOnUse" x="0" y="0" width="200" height="200">
<path d="M200 0H0V200H200V0Z" fill="white"/>
</mask>
<g mask="url(#mask0_16_32)">
<path d="M100 200C155.228 200 200 155.228 200 100C200 44.7715 155.228 0 100 0C44.7715 0 0 44.7715 0 100C0 155.228 44.7715 200 100 200Z" fill="#7F3CE0"/>
<path d="M75.8637 64.4705C70.7853 64.4705 66.6688 68.5138 66.6688 73.5021V87.0491H75.8637V73.5021H87.3569V87.0491H96.5523V73.5021C96.5523 68.5138 92.4353 64.4705 87.3569 64.4705H75.8637Z" fill="white"/>
<path d="M112.643 64.4705C107.565 64.4705 103.448 68.5138 103.448 73.5021V87.0491H112.643V73.5021H124.136V87.0491H133.331V73.5021C133.331 68.5138 129.215 64.4705 124.136 64.4705H112.643Z" fill="white"/>
<path d="M66.6688 123.173C66.6688 128.161 70.7853 132.205 75.8637 132.205H87.3569C92.4353 132.205 96.5523 128.161 96.5523 123.173V109.626H87.3569V123.173H75.8637V109.626H66.6688V123.173Z" fill="white"/>
<path d="M103.448 123.173C103.448 128.161 107.565 132.205 112.643 132.205H124.136C129.215 132.205 133.331 128.161 133.331 123.173V109.626H124.136V123.173H112.643V109.626H103.448V123.173Z" fill="white"/>
<path fill-rule="evenodd" clip-rule="evenodd" d="M106.896 33.8149C102.629 31.395 97.3711 31.395 93.1039 33.8149L45.5628 60.7748C41.2955 63.1948 38.6667 67.6669 38.6667 72.5068V126.427C38.6667 131.266 41.2955 135.739 45.5628 138.159L93.1039 165.119C97.3711 167.539 102.629 167.539 106.896 165.119L154.437 138.159C158.704 135.739 161.333 131.266 161.333 126.427V72.5068C161.333 67.6669 158.704 63.1948 154.437 60.7748L106.896 33.8149ZM97.7016 41.6362C99.1237 40.8296 100.876 40.8296 102.298 41.6362L149.84 68.5961C151.263 69.4028 152.139 70.8937 152.139 72.5068V85.0226C151.953 85.2649 151.704 85.583 151.395 85.9549C150.619 86.8864 149.499 88.1214 148.123 89.3436C145.231 91.9142 141.889 93.8217 138.636 93.8217H60.6568C55.5135 93.8217 51.1172 96.1616 47.8615 98.6494V72.5068C47.8615 70.8937 48.7377 69.4028 50.1601 68.5961L97.7016 41.6362ZM47.8615 111.627V126.427C47.8615 128.04 48.7377 129.531 50.1601 130.337L97.7016 157.297C99.1237 158.104 100.876 158.104 102.298 157.297L149.84 130.337C151.263 129.531 152.139 128.04 152.139 126.427V97.8092C148.728 100.384 144.076 102.853 138.636 102.853H60.6568C57.6703 102.853 54.5284 104.69 51.7411 107.269C50.4251 108.486 49.3523 109.719 48.6084 110.65C48.2927 111.046 48.0416 111.38 47.8615 111.627Z" fill="white"/>
</g>
</g>
<defs>
<clipPath id="clip0_16_32">
<rect width="200" height="200" fill="white"/>
</clipPath>
</defs>
</svg>
