<svg width="200" height="200" viewBox="0 0 200 200" fill="none" xmlns="http://www.w3.org/2000/svg">
<g clip-path="url(#clip0_16_47)">
<mask id="mask0_16_47" style="mask-type:luminance" maskUnits="userSpaceOnUse" x="0" y="0" width="200" height="200">
<path d="M200 0H0V200H200V0Z" fill="white"/>
</mask>
<g mask="url(#mask0_16_47)">
<mask id="mask1_16_47" style="mask-type:alpha" maskUnits="userSpaceOnUse" x="0" y="0" width="200" height="200">
<path d="M100 200C155.229 200 200 155.229 200 100C200 44.7715 155.229 0 100 0C44.7715 0 0 44.7715 0 100C0 155.229 44.7715 200 100 200Z" fill="#D9D9D9"/>
</mask>
<g mask="url(#mask1_16_47)">
<path d="M233.89 -43.4692H-30.8594V221.281H233.89V-43.4692Z" fill="#A1723A"/>
<g filter="url(#filter0_f_16_47)">
<path d="M107.638 195.804C166.572 195.804 214.348 148.042 214.348 89.1256C214.348 30.2081 166.572 -17.5537 107.638 -17.5537C48.7034 -17.5537 0.927734 30.2081 0.927734 89.1256C0.927734 148.042 48.7034 195.804 107.638 195.804Z" fill="#531002"/>
</g>
<g filter="url(#filter1_f_16_47)">
<path d="M119.142 162.028C166.942 162.028 205.691 123.264 205.691 75.4475C205.691 27.6304 166.942 -11.1328 119.142 -11.1328C71.3419 -11.1328 32.5928 27.6304 32.5928 75.4475C32.5928 123.264 71.3419 162.028 119.142 162.028Z" fill="#2B5DF0"/>
</g>
<g filter="url(#filter2_f_16_47)">
<path d="M117.561 166.982C167.392 166.982 207.789 126.571 207.789 76.7219C207.789 26.8731 167.392 -13.5376 117.561 -13.5376C67.7281 -13.5376 27.3315 26.8731 27.3315 76.7219C27.3315 126.571 67.7281 166.982 117.561 166.982Z" fill="url(#paint0_radial_16_47)"/>
</g>
<g filter="url(#filter3_f_16_47)">
<path d="M132.528 99.4537C157.631 99.4537 177.982 79.1031 177.982 53.9994C177.982 28.8956 157.631 8.54492 132.528 8.54492C107.424 8.54492 87.0725 28.8956 87.0725 53.9994C87.0725 79.1031 107.424 99.4537 132.528 99.4537Z" fill="#FCB8D4"/>
</g>
<g filter="url(#filter4_f_16_47)">
<path d="M132.494 72.1175C142.519 72.1175 150.645 63.9906 150.645 53.9663C150.645 43.9419 142.519 35.8154 132.494 35.8154C122.47 35.8154 114.343 43.9419 114.343 53.9663C114.343 63.9906 122.47 72.1175 132.494 72.1175Z" fill="white"/>
</g>
<g filter="url(#filter5_f_16_47)">
<path d="M120.435 235.194C210.519 235.194 283.546 162.166 283.546 72.0832C283.546 -18.0006 210.519 -91.0281 120.435 -91.0281C30.3514 -91.0281 -42.6758 -18.0006 -42.6758 72.0832C-42.6758 162.166 30.3514 235.194 120.435 235.194Z" fill="url(#paint1_radial_16_47)" fill-opacity="0.9"/>
</g>
</g>
</g>
</g>
<defs>
<filter id="filter0_f_16_47" x="-3.03021" y="-21.5117" width="221.336" height="221.274" filterUnits="userSpaceOnUse" color-interpolation-filters="sRGB">
<feFlood flood-opacity="0" result="BackgroundImageFix"/>
<feBlend mode="normal" in="SourceGraphic" in2="BackgroundImageFix" result="shape"/>
<feGaussianBlur stdDeviation="1.97897" result="effect1_foregroundBlur_16_47"/>
</filter>
<filter id="filter1_f_16_47" x="24.6769" y="-19.0487" width="188.93" height="188.992" filterUnits="userSpaceOnUse" color-interpolation-filters="sRGB">
<feFlood flood-opacity="0" result="BackgroundImageFix"/>
<feBlend mode="normal" in="SourceGraphic" in2="BackgroundImageFix" result="shape"/>
<feGaussianBlur stdDeviation="3.95795" result="effect1_foregroundBlur_16_47"/>
</filter>
<filter id="filter2_f_16_47" x="24.3631" y="-16.5061" width="186.395" height="186.456" filterUnits="userSpaceOnUse" color-interpolation-filters="sRGB">
<feFlood flood-opacity="0" result="BackgroundImageFix"/>
<feBlend mode="normal" in="SourceGraphic" in2="BackgroundImageFix" result="shape"/>
<feGaussianBlur stdDeviation="1.48423" result="effect1_foregroundBlur_16_47"/>
</filter>
<filter id="filter3_f_16_47" x="81.1356" y="2.608" width="102.783" height="102.783" filterUnits="userSpaceOnUse" color-interpolation-filters="sRGB">
<feFlood flood-opacity="0" result="BackgroundImageFix"/>
<feBlend mode="normal" in="SourceGraphic" in2="BackgroundImageFix" result="shape"/>
<feGaussianBlur stdDeviation="2.96846" result="effect1_foregroundBlur_16_47"/>
</filter>
<filter id="filter4_f_16_47" x="110.385" y="31.8575" width="44.2178" height="44.2179" filterUnits="userSpaceOnUse" color-interpolation-filters="sRGB">
<feFlood flood-opacity="0" result="BackgroundImageFix"/>
<feBlend mode="normal" in="SourceGraphic" in2="BackgroundImageFix" result="shape"/>
<feGaussianBlur stdDeviation="1.97897" result="effect1_foregroundBlur_16_47"/>
</filter>
<filter id="filter5_f_16_47" x="-45.6442" y="-93.9965" width="332.158" height="332.159" filterUnits="userSpaceOnUse" color-interpolation-filters="sRGB">
<feFlood flood-opacity="0" result="BackgroundImageFix"/>
<feBlend mode="normal" in="SourceGraphic" in2="BackgroundImageFix" result="shape"/>
<feGaussianBlur stdDeviation="1.48423" result="effect1_foregroundBlur_16_47"/>
</filter>
<radialGradient id="paint0_radial_16_47" cx="0" cy="0" r="1" gradientUnits="userSpaceOnUse" gradientTransform="translate(132.779 51.2582) rotate(128.228) scale(170.408 170.394)">
<stop offset="0.286458" stop-color="#387AFA"/>
<stop offset="0.647782" stop-color="#387AFA" stop-opacity="0"/>
</radialGradient>
<radialGradient id="paint1_radial_16_47" cx="0" cy="0" r="1" gradientUnits="userSpaceOnUse" gradientTransform="translate(120.435 72.0832) rotate(90) scale(163.111 163.111)">
<stop offset="0.598958" stop-opacity="0"/>
<stop offset="0.671875"/>
<stop offset="0.734375" stop-opacity="0"/>
</radialGradient>
<clipPath id="clip0_16_47">
<rect width="200" height="200" fill="white"/>
</clipPath>
</defs>
</svg>
